# xmcd CD database file
#
# Track frame offsets:
#	150
#	24303
#	46661
#	59786
#	71643
#	91015
#	95866
#	133278
#	150527
#	157698
#	168014
#	176302
#	188301
#	196653
#	217472
#	231479
#	251970
#	269185
#	270352
#	276308
#	283692
#	290209
#	299628
#	303550
#	310120
#	322022
#	329257
#	332925
#	337083
#
# Disc length: 4611 seconds
#
# Revision: 0
# Processed by: cddbd v1.5.2PL0 Copyright (c) Steve Scherf et al.
# Submitted via: CDex 1.70beta2
#
DISCID=cd12011d
DTITLE=Ulmer Landesposaunentag 2004 - Confidentia
DYEAR=2004
DGENRE=Brass Ensemble
TTITLE0=Concerto C-Dur: Intrada und Allegro - G.P.Telemann
TTITLE1=Eine feste Burg ist unser Gott - J.S.Bach
TTITLE2=Canzon Quarta - G.Gabrieli
TTITLE3=Confidentia Meditation über Vertrauenslieder - I.Bredenbach
TTITLE4=Eine feste Burg ist unser Gott - R.Schweizer
TTITLE5=Choralpartita - R.Schweizer
TTITLE6=Dank sei dir - Praise Medley II - H.-J.Eißler
TTITLE7=Herr, unser Herrscher - F.Mendelsohn-Bartholdy
TTITLE8=Jungbläserintrade III - F.Schaber
TTITLE9=Rock my Soul - H.Holzwarth
TTITLE10=Panther-Tango - A.Sailer
TTITLE11=Jesus, dein Licht - Shine, Jesus, shine - H.-J.Eißler
TTITLE12=Erd und Himmel sollen singen - M.Schütz
TTITLE13=Move, spirit, move - H.-H. Jost-Naujoks
TTITLE14=Du hast Erbarmen - A.Frey
TTITLE15=Concerto Es-Dur: I Grave und V.Allegro - G.F. Händel
TTITLE16=Die Himmel erzählen die Ehre Gottes - J.Haydn
TTITLE17=Münsterplatz Athmosphäre
TTITLE18=Menuett - G.F. Händel
TTITLE19=Air - G.F.Händel
TTITLE20=Alla Hornpipe - G.F.Händel
TTITLE21=Dir, dir, o Höchster, will ich singen, I.Vorspiel - H.Lammel
TTITLE22=Dir, dir, o Höchster, will ich singen, II.Choralsatz - H.Lammel
TTITLE23=Lobe den Herren, den möchtigen König der Ehren - W.Schmidt
TTITLE24=Gib uns Frieden jeden Tag - M.Schütz
TTITLE25=Aus dem Grußwort von Landesbischof Dr.Gerhard Maier
TTITLE26=Nun danket alle Gott - J.S.Bach
TTITLE27=Läuten der Münsterglocken
TTITLE28=Gloria sei dir gesungen - J.S.Bach
EXTD=YEAR: 2004
EXTT0=
EXTT1=
EXTT2=
EXTT3=
EXTT4=
EXTT5=
EXTT6=
EXTT7=
EXTT8=
EXTT9=
EXTT10=
EXTT11=
EXTT12=
EXTT13=
EXTT14=
EXTT15=
EXTT16=
EXTT17=
EXTT18=
EXTT19=
EXTT20=
EXTT21=
EXTT22=
EXTT23=
EXTT24=
EXTT25=
EXTT26=
EXTT27=
EXTT28=
PLAYORDER=
